<svg width="24" height="22" viewBox="0 0 24 22" fill="none" xmlns="http://www.w3.org/2000/svg">
<path d="M21.7817 5.83563C21.1041 4.19308 19.846 2.965 18.2397 2.37761C17.5543 2.127 16.8637 2 16.1867 2C14.7885 2 13.4612 2.52786 12.2422 3.5694C12.2161 3.59152 12.19 3.6142 12.1645 3.63631C11.2817 2.82836 10.2907 2.32942 9.15783 2.1185C8.7978 2.0516 8.4321 2.01758 8.07093 2.01758C6.79919 2.01758 5.58528 2.4258 4.56018 3.19746C3.54132 3.96402 2.7844 5.03618 2.3705 6.29772C1.72471 8.26854 1.92372 10.2524 2.963 12.1943C3.6258 13.4332 4.51823 14.5921 5.77125 15.8423C7.05206 17.1197 8.48993 18.2894 10.1659 19.4177C10.501 19.6433 10.8361 19.7635 11.1077 19.8605C11.1984 19.8928 11.2766 19.9211 11.3418 19.9484C11.5125 20.0198 11.6928 20.0561 11.8776 20.0561H12.4395C12.5336 20.0561 12.6283 20.0464 12.7202 20.0272C13.7311 19.8185 14.4489 19.2623 15.0822 18.7719C15.1928 18.6863 15.3073 18.5972 15.4156 18.5173C17.3184 17.1072 18.7585 15.7652 19.948 14.2933C21.0162 12.9717 21.6853 11.7543 22.0538 10.4633C22.4791 8.97273 22.3798 7.28596 21.7817 5.83563V5.83563Z" fill="#FF5756"/>
</svg>
